<?xml version="1.0" standalone="no"?><!DOCTYPE svg PUBLIC "-//W3C//DTD SVG 1.1//EN" "http://www.w3.org/Graphics/SVG/1.1/DTD/svg11.dtd"><svg t="1620834185261" class="icon" viewBox="0 0 1824 1024" version="1.1" xmlns="http://www.w3.org/2000/svg" p-id="5384" xmlns:xlink="http://www.w3.org/1999/xlink" width="356.25" height="200"><defs><style type="text/css"></style></defs><path d="M491.558 184.973l-10.259 15.87c-4.168 6.572-7.695 15.71-7.534 25.969 0 10.42 3.366 21.32 9.939 32.381 9.618 16.030 26.771 33.022 53.702 50.335l227.15 153.891-2.885-121.67-270.111-156.777zM1149.603 675.821l0.321 0.16c16.030 9.778 30.618 16.191 46.167 17.473s30.458-3.527 43.282-11.221c24.045-14.267 45.686-35.587 53.541-65.885s0.962-65.885-23.084-106.121c-0.16-0.481-0.481-0.962-0.641-1.443-24.045-40.396-56.427-61.556-90.251-65.404-33.984-4.008-66.526 7.053-96.663 21.16-21.32 10.259-36.87 17.954-49.213 20.519-12.343 2.244-21.962 1.763-39.435-6.733l-48.732-28.374 2.244 96.342 202.463 129.525zM1179.098 512.472c41.999 25.488 55.465 79.991 29.977 121.991l-151.967-91.854c25.328-41.999 79.991-55.465 121.991-30.137zM815.531 583.968c-0.802 19.236-4.969 28.053-12.824 37.671-8.175 9.618-22.442 19.557-41.679 33.343-26.771 19.717-52.259 42.961-65.083 74.701-12.985 31.9-9.618 70.854 15.069 111.731 23.725 40.396 51.618 63.64 82.075 71.335 30.297 7.534 59.473-1.122 83.358-15.389 13.145-7.695 24.366-18.435 30.778-32.702 6.252-14.267 7.695-30.137 6.893-48.732l-0.16-0.321-17.633-259.050-1.122-15.389c-0.641-7.855 5.29-14.588 13.145-15.229 1.122 0 2.084 0.16 3.206 0.321h0.481l-6.252-254.241-17.152-170.563c-2.405-32.061-8.977-55.144-18.595-71.335-6.412-11.061-14.427-19.236-23.565-24.206-8.977-4.969-18.595-6.412-26.45-5.771l-18.916 1.282 12.343 497.421 2.084 85.121zM843.103 668.287l6.412 177.456c-49.053 1.763-90.251-36.549-91.854-85.442-1.763-49.053 36.549-90.251 85.442-92.014z" p-id="5385"></path></svg>