<?xml version="1.0" standalone="no"?><!DOCTYPE svg PUBLIC "-//W3C//DTD SVG 1.1//EN" "http://www.w3.org/Graphics/SVG/1.1/DTD/svg11.dtd"><svg t="1621186097973" class="icon" viewBox="0 0 1024 1024" version="1.1" xmlns="http://www.w3.org/2000/svg" p-id="1253" xmlns:xlink="http://www.w3.org/1999/xlink" width="200" height="200"><defs><style type="text/css"></style></defs><path d="M495.0016 40.96c-37.62176 0-68.44416 30.76096-69.632 69.46816l-9.76896 322.39616-50.56512-249.36448c-7.68-37.888-43.2128-62.6688-80.26112-55.95136l-4.21888 0.75776c-37.02784 6.73792-62.19776 42.51648-56.832 80.85504l42.8032 305.27488-66.17088-168.22272c-14.06976-35.77856-53.12512-53.6576-88.3712-40.46848l-4.7104 1.76128c-35.18464 13.18912-53.94432 52.65408-42.47552 89.35424l129.69984 414.84288c19.7632 49.0496 28.42624 84.72576 100.47488 134.20544 72.04864 49.47968 285.0816 59.45344 384.90112-32.0512 36.352-33.34144 88.1664-96.11264 116.06016-138.30144l151.9616-209.57184c23.38816-32.21504 18.28864-77.63968-11.63264-103.50592a71.39328 71.39328 0 0 0-100.49536 6.69696l-120.58624 135.00416 55.33696-395.01824c5.36576-38.33856-19.78368-74.1376-56.832-80.85504l-4.21888-0.75776c-37.04832-6.73792-72.58112 18.04288-80.26112 55.95136l-50.52416 249.36448-9.80992-322.39616C567.7056 71.72096 536.8832 40.96 499.26144 40.96h-4.28032z" fill="#2c2c2c" p-id="1254"></path></svg>