<?xml version="1.0" standalone="no"?><!DOCTYPE svg PUBLIC "-//W3C//DTD SVG 1.1//EN" "http://www.w3.org/Graphics/SVG/1.1/DTD/svg11.dtd"><svg t="1620576655478" class="icon" viewBox="0 0 1060 1024" version="1.1" xmlns="http://www.w3.org/2000/svg" p-id="17236" xmlns:xlink="http://www.w3.org/1999/xlink" width="207.03125" height="200"><defs><style type="text/css"></style></defs><path d="M529.655172 336.542897c-86.545655 0-156.70731 69.172966-156.70731 154.482759 0 85.309793 70.161655 154.482759 156.70731 154.482759s156.70731-69.172966 156.70731-154.482759C686.362483 405.715862 616.200828 336.542897 529.655172 336.542897zM529.655172 568.28469c-43.255172 0-78.353655-34.568828-78.353655-77.259034 0-42.654897 35.063172-77.259034 78.353655-77.259034s78.353655 34.568828 78.353655 77.259034C608.008828 533.680552 572.910345 568.28469 529.655172 568.28469z" p-id="17237" fill="#2c2c2c"></path><path d="M529.655172 144.560552c-11.016828 0-21.821793 0.953379-32.662069 1.624276C362.284138 158.331586 249.644138 244.736 201.622069 363.343448 162.498207 338.202483 129.094621 305.257931 104.659862 266.063448 81.425655 228.740414 65.889103 186.40331 60.627862 140.852966c-19.067586 43.820138-31.77931 90.888828-37.358345 140.076138-2.118621 18.46731-3.425103 37.181793-3.425103 56.178759 0 264.403862 209.037241 480.361931 473.688276 498.617379 11.970207 0.812138 23.905103 1.800828 36.122483 1.800828s24.152276-0.953379 36.122483-1.800828c137.851586-13.735724 251.86869-105.43669 296.500966-229.305379 2.259862-6.285241 4.13131-12.711724 6.038069-19.173517 36.82869 25.847172 68.113655 58.827034 90.747586 97.562483 26.200276 44.844138 41.454345 96.609103 41.666207 151.975724 22.139586-52.577103 34.957241-109.779862 37.570207-169.595586 0.317793-7.238621 1.129931-14.37131 1.129931-21.715862C1039.465931 368.851862 811.219862 144.560552 529.655172 144.560552zM882.158345 504.267034c-24.752552-14.088828-51.094069-25.670621-78.88331-34.180414 0.564966 6.956138 1.129931 13.876966 1.129931 20.974345 0 20.303448-2.542345 39.97131-6.885517 59.003586-25.494069 111.545379-121.396966 197.031724-239.757241 208.825379-9.25131 0.918069-18.643862 1.377103-28.107034 1.377103-134.355862 0-254.022621-60.592552-333.117793-155.153655-51.623724-61.757793-86.121931-137.851586-95.549793-221.537103 23.799172 22.422069 50.670345 41.666207 79.589517 57.697103 23.693241 13.135448 48.763586 24.081655 75.211034 32.203034 1.765517-26.729931 7.485793-52.329931 16.631172-76.376276C311.366621 294.806069 411.68331 221.784276 529.655172 221.784276c134.532414 0 254.305103 60.769103 333.329655 155.577379 41.878069 50.246621 72.527448 109.885793 87.463724 175.492414C929.650759 534.280828 906.628414 518.17931 882.158345 504.267034z" p-id="17238" fill="#2c2c2c"></path></svg>