<?xml version="1.0" standalone="no"?><!DOCTYPE svg PUBLIC "-//W3C//DTD SVG 1.1//EN" "http://www.w3.org/Graphics/SVG/1.1/DTD/svg11.dtd"><svg t="1620576927007" class="icon" viewBox="0 0 1024 1024" version="1.1" xmlns="http://www.w3.org/2000/svg" p-id="21350" xmlns:xlink="http://www.w3.org/1999/xlink" width="200" height="200"><defs><style type="text/css"></style></defs><path d="M204.845184 908.777281c-49.406765 0-89.59776-40.203795-89.59776-89.59776s40.190995-89.59776 89.59776-89.597761 89.59776 40.203795 89.59776 89.597761-40.190995 89.59776-89.59776 89.59776z m0-127.996801c-21.170671 0-38.39904 17.228369-38.39904 38.399041s17.228369 38.39904 38.39904 38.39904 38.39904-17.228369 38.39904-38.39904-17.228369-38.39904-38.39904-38.399041z" fill="#2c2c2c" p-id="21351"></path><path d="M205.305973 1024A203.898903 203.898903 0 0 1 74.928432 976.999575 204.206095 204.206095 0 0 1 0.99748 838.033449 204.231694 204.231694 0 0 1 47.02513 687.522012a215.546611 215.546611 0 0 1 27.813704-27.826504L478.502343 326.827029l32.575185 39.499813-403.57391 332.79168a166.229444 166.229444 0 0 0-21.017075 21.004275 153.340166 153.340166 0 0 0-34.533537 112.995575 153.340166 153.340166 0 0 0 55.525012 104.368591 153.429764 153.429764 0 0 0 112.982776 34.571936 153.698558 153.698558 0 0 0 104.432589-55.550612l332.79168-403.561111 39.499813 32.575186-332.791681 403.561111a204.487688 204.487688 0 0 1-139.017324 73.930952c-6.707032 0.665583-13.401265 0.985575-20.069898 0.985575z" fill="#2c2c2c" p-id="21352"></path><path d="M856.336097 1023.9872c-37.59266 0-73.828554-12.569286-103.715807-36.287093a179.246719 179.246719 0 0 1-26.917727-26.866528l-201.59496-253.98405 40.101397-31.820005 201.466963 253.817655c5.439864 6.719832 12.198095 13.490863 18.879528 18.841129a115.427514 115.427514 0 0 0 85.399465 24.319392 115.389115 115.389115 0 0 0 77.694058-43.160521c39.755806-50.123547 31.333617-123.350516-18.78993-163.22152l-269.407665-213.882653 31.820004-40.101397 269.446064 213.882653c72.215795 57.444964 84.324292 162.927127 27.032924 235.130122a166.139847 166.139847 0 0 1-111.946001 62.193645c-6.515037 0.767981-13.017275 1.139172-19.468313 1.139171zM197.613365 338.359541a139.900502 139.900502 0 0 1-99.568711-41.240569l-90.493738-90.506537a25.59936 25.59936 0 0 1 0-36.197495L170.465244 7.500612a25.59936 25.59936 0 0 1 36.197495 0l90.506537 90.493738c26.597735 26.597735 41.240569 61.963251 41.240569 99.568711s-14.642834 72.970976-41.240569 99.568711a139.887703 139.887703 0 0 1-99.555911 41.227769zM61.847159 188.513687l72.39499 72.40779a89.047374 89.047374 0 0 0 63.371216 26.239344c23.935402 0 46.424439-9.318167 63.345616-26.239344 16.933977-16.921177 26.252144-39.423014 26.252144-63.358416s-9.318167-46.437239-26.239344-63.371216l-72.40779-72.39499-126.716832 126.716832z" fill="#2c2c2c" p-id="21353"></path><path d="M413.607965 439.157021a25.471363 25.471363 0 0 1-18.098747-7.500612l-134.524637-134.524637a25.59936 25.59936 0 1 1 36.197495-36.197495l134.524637 134.524637a25.59936 25.59936 0 0 1-18.098748 43.698107zM742.431744 563.18592c-155.272918 0-281.59296-126.320042-281.59296-281.59296S587.158826 0 742.431744 0c24.549786 0 49.073973 3.21272 72.894178 9.574161a25.61216 25.61216 0 0 1 18.137147 31.333616 25.573761 25.573761 0 0 1-31.333617 18.137147A231.520612 231.520612 0 0 0 742.431744 51.19872c-127.036824 0-230.39424 103.357416-230.39424 230.39424s103.357416 230.39424 230.39424 230.39424 230.39424-103.357416 230.394241-230.39424c0-20.095498-2.636734-40.190995-7.833405-59.723307a25.59936 25.59936 0 0 1 49.470764-13.17087C1020.811985 232.518987 1024.024705 257.043174 1024.024705 281.59296c0 155.272918-126.320042 281.59296-281.592961 281.59296z" fill="#2c2c2c" p-id="21354"></path><path d="M832.976681 344.733782c-41.022974 0-79.61401-15.9996-108.643684-45.042074a152.533787 152.533787 0 0 1-45.003675-108.592485c0-41.163771 15.9996-79.742006 45.054874-108.630885l66.251143-66.263943a25.59936 25.59936 0 1 1 36.197495 36.210295l-66.302342 66.315142a101.309467 101.309467 0 0 0-30.00245 72.38219c0 27.340116 10.649334 53.041874 30.00245 72.39499a101.821454 101.821454 0 0 0 72.446189 30.040849h0.063998a101.463063 101.463063 0 0 0 72.266994-30.015249l66.327941-66.327942a25.59936 25.59936 0 1 1 36.197495 36.197495l-66.302342 66.302342a152.316192 152.316192 0 0 1-108.464488 45.042074l-0.089598-0.012799z" fill="#2c2c2c" p-id="21355"></path></svg>