<?xml version="1.0" standalone="no"?><!DOCTYPE svg PUBLIC "-//W3C//DTD SVG 1.1//EN" "http://www.w3.org/Graphics/SVG/1.1/DTD/svg11.dtd"><svg t="1620577873721" class="icon" viewBox="0 0 1223 1024" version="1.1" xmlns="http://www.w3.org/2000/svg" p-id="24136" xmlns:xlink="http://www.w3.org/1999/xlink" width="238.8671875" height="200"><defs><style type="text/css"></style></defs><path d="M1211.448889 568.888889v-77.653333h-56.888889v9.671111h-98.986667v-36.977778a59.448889 59.448889 0 0 0 26.737778-46.648889V341.333333a56.888889 56.888889 0 0 0-16.213333-38.115555V210.488889c0-142.222222-208.782222-194.275556-403.911111-194.275556a1106.773333 1106.773333 0 0 0-373.191111 62.008889c-126.577778 48.071111-193.706667 116.053333-193.706667 196.266667V301.511111a56.888889 56.888889 0 0 0-17.066667 39.822222v82.204445A67.982222 67.982222 0 0 0 113.777778 469.617778l10.24 227.555555a452.835556 452.835556 0 0 0 57.742222 173.226667l-52.053333-1.706667a40.106667 40.106667 0 0 0-22.471111 6.826667L28.444444 933.262222a38.4 38.4 0 0 0-17.92 43.52 38.968889 38.968889 0 0 0 37.831112 28.444445l398.222222-2.56c44.373333 3.697778 92.728889 5.404444 142.222222 5.404444 42.382222 0 85.333333-1.422222 124.302222-4.266667h411.875556a38.968889 38.968889 0 0 0 37.262222-28.444444 37.546667 37.546667 0 0 0-15.644444-42.097778l-85.333334-60.586666a40.96 40.96 0 0 0-20.764444-5.404445l-52.622222 1.706667a449.137778 449.137778 0 0 0 59.164444-174.648889v-25.6h71.111111V682.666667h56.888889v-79.075556h-56.888889v9.671111h-67.697778l1.991111-55.466666h101.546667V568.888889zM663.608889 73.102222a724.764444 724.764444 0 0 1 251.733333 38.115556c63.146667 25.031111 95.288889 59.448889 95.288889 99.271111v78.506667c-14.222222 22.186667-152.462222 62.862222-429.511111 62.862222S166.115556 312.888889 152.177778 291.555556v-17.066667c0-120.32 264.533333-201.386667 511.431111-201.386667zM135.111111 371.2c113.777778 64.284444 405.617778 66.56 446.008889 66.56 65.422222 0 341.333333-3.982222 445.724444-66.844444v44.373333c-15.36 25.884444-175.502222 71.395556-445.724444 71.395555S148.195556 440.604444 135.111111 417.28z m0 554.666667l90.453333 3.128889c5.688889 6.257778 11.946667 12.515556 18.488889 18.488888H103.537778z m901.12 0l32.142222 22.755555h-142.222222c6.826667-6.257778 13.084444-12.8 19.057778-19.342222z m-160.426667-8.533334c-28.444444 28.444444-251.733333 39.537778-414.151111 28.444445H455.111111c-79.644444-5.404444-143.644444-15.644444-161.564444-30.72-98.986667-85.333333-113.777778-222.151111-113.777778-222.435556L170.666667 496.64c134.826667 44.942222 373.475556 46.933333 410.168889 46.933333s284.444444-1.991111 417.848888-49.493333l-8.817777 199.111111a374.897778 374.897778 0 0 1-114.631111 224.142222z" p-id="24137" fill="#2c2c2c"></path><path d="M704 830.862222l-3.982222-39.253333a53.475556 53.475556 0 0 0-24.746667-42.382222 58.311111 58.311111 0 0 0 18.773333-17.635556 65.137778 65.137778 0 0 0 11.377778-37.831111 72.248889 72.248889 0 0 0-25.6-58.88 101.262222 101.262222 0 0 0-63.431111-18.204444h-115.484444v257.991111h54.044444v-99.271111h56.888889a40.106667 40.106667 0 0 1 26.737778 7.111111 34.702222 34.702222 0 0 1 9.955555 23.893333l2.844445 30.151111a68.835556 68.835556 0 0 0 12.231111 35.271111l1.991111 2.844445h63.146667l-11.093334-11.946667a53.191111 53.191111 0 0 1-13.653333-31.857778z m-149.048889-165.831111h56.888889a52.622222 52.622222 0 0 1 31.573333 7.395556 28.444444 28.444444 0 0 1 8.533334 23.04 30.435556 30.435556 0 0 1-8.533334 23.04 50.346667 50.346667 0 0 1-31.573333 8.533333h-56.888889z" p-id="24138" fill="#2c2c2c"></path></svg>