<?xml version="1.0" standalone="no"?><!DOCTYPE svg PUBLIC "-//W3C//DTD SVG 1.1//EN" "http://www.w3.org/Graphics/SVG/1.1/DTD/svg11.dtd"><svg t="1620577005669" class="icon" viewBox="0 0 1024 1024" version="1.1" xmlns="http://www.w3.org/2000/svg" p-id="22834" xmlns:xlink="http://www.w3.org/1999/xlink" width="200" height="200"><defs><style type="text/css"></style></defs><path d="M748.861935 905.572019a30.057848 30.057848 0 0 1-30.057848-30.057848v-566.289853h-566.289853a30.057848 30.057848 0 0 1 0-60.115696h596.347701a30.057848 30.057848 0 0 1 30.057848 30.057848v596.347701a30.057848 30.057848 0 0 1-30.057848 30.057848z" p-id="22835" fill="#2c2c2c"></path><path d="M902.938463 756.485094H306.590762a30.057848 30.057848 0 0 1-30.057848-30.057848v-596.347701a30.057848 30.057848 0 0 1 60.115696 0v566.289853H902.938463a30.057848 30.057848 0 0 1 0 60.115696zM999.664618 284.576883a18.034709 18.034709 0 0 1-15.149155-8.235851c-90.173544-138.747026-303.163453-195.977168-474.192608-127.565506a18.034709 18.034709 0 0 1-13.345685-33.484442c186.358657-74.483347 418.405242-11.061288 517.776487 141.392116a18.034709 18.034709 0 0 1-5.290181 24.948014 18.034709 18.034709 0 0 1-9.798858 2.945669z" p-id="22836" fill="#2c2c2c"></path><path d="M503.229203 149.677261a17.674015 17.674015 0 0 1-9.49828-2.705206 18.034709 18.034709 0 0 1-6.01157-24.827782L558.114833 8.705955a18.034709 18.034709 0 1 1 30.659005 18.99656L518.558705 141.140833a18.034709 18.034709 0 0 1-15.329502 8.536428z" p-id="22837" fill="#2c2c2c"></path><path d="M644.982013 209.61261a18.395403 18.395403 0 0 1-6.432379-1.142198L493.730923 153.46455a18.034709 18.034709 0 0 1 12.864759-33.724905L651.354277 174.505044a18.034709 18.034709 0 0 1-6.372264 34.867103zM361.897202 940.078429c-141.632579 0-280.800415-63.482175-351.917283-172.592163a18.034709 18.034709 0 1 1 30.057848-19.717948C130.812468 886.575459 343.862493 943.985949 514.530953 875.39394a18.034709 18.034709 0 1 1 13.405801 33.484443A447.501239 447.501239 0 0 1 361.897202 940.078429z" p-id="22838" fill="#2c2c2c"></path><path d="M451.409473 1023.99994a18.034709 18.034709 0 0 1-9.438164-2.705206 18.034709 18.034709 0 0 1-6.01157-24.827783L506.174872 883.028633a18.034709 18.034709 0 1 1 30.659005 18.99656l-70.034786 113.438318a18.034709 18.034709 0 0 1-15.389618 8.536429z" p-id="22839" fill="#2c2c2c"></path><path d="M524.690506 905.632135a18.395403 18.395403 0 0 1-6.372264-1.202314l-144.818711-55.005861a18.034709 18.034709 0 1 1 12.804644-33.724906l144.81871 55.005862a18.034709 18.034709 0 0 1-6.432379 34.927219z" p-id="22840" fill="#2c2c2c"></path></svg>