<?xml version="1.0" standalone="no"?><!DOCTYPE svg PUBLIC "-//W3C//DTD SVG 1.1//EN" "http://www.w3.org/Graphics/SVG/1.1/DTD/svg11.dtd"><svg t="1620577033456" class="icon" viewBox="0 0 1024 1024" version="1.1" xmlns="http://www.w3.org/2000/svg" p-id="23036" xmlns:xlink="http://www.w3.org/1999/xlink" width="200" height="200"><defs><style type="text/css"></style></defs><path d="M699.129958 186.598862l229.264591 0c12.737092 0 25.474185 8.491395 25.474185 25.474185l0 0 0 590.143755c0 12.737092-12.737092 25.474185-25.474185 25.474185l0 0L699.129958 827.690986l0-50.947346 203.790406 0L902.920364 237.546208 699.129958 237.546208 699.129958 186.598862 699.129958 186.598862zM699.129958 657.864112l144.351666 0c12.737092 0 21.228487-8.491395 21.228487-16.98279 0-12.737092-8.491395-21.228487-21.228487-21.228487L699.129958 619.652835 699.129958 657.864112 699.129958 657.864112zM699.129958 534.740934l144.351666 0c12.737092 0 21.228487-8.491395 21.228487-21.228487 0-12.737092-8.491395-21.228487-21.228487-21.228487L699.129958 492.283959 699.129958 534.740934 699.129958 534.740934zM699.129958 407.372058l144.351666 0c12.737092 0 21.228487-8.491395 21.228487-21.228487s-8.491395-21.228487-21.228487-21.228487L699.129958 364.915084 699.129958 407.372058zM329.759399 186.598862l369.370559 0 0 50.947346L329.759399 237.546208 329.759399 186.598862 329.759399 186.598862zM699.129958 827.689962 329.759399 827.689962l0-50.947346 369.370559 0L699.129958 827.689962 699.129958 827.689962zM699.129958 364.915084l0 42.455951L554.778292 407.371034c-8.491395 0-16.98279-8.491395-16.98279-21.228487s8.491395-21.228487 16.98279-21.228487L699.129958 364.91406 699.129958 364.915084zM699.129958 492.284983l0 42.455951L554.778292 534.740934c-8.491395 0-16.98279-8.491395-16.98279-21.228487 0-12.737092 8.491395-21.228487 16.98279-21.228487L699.129958 492.283959 699.129958 492.284983zM699.129958 619.653859l0 38.211277L554.778292 657.865135c-8.491395 0-16.98279-8.491395-16.98279-16.98279 0-12.737092 8.491395-21.228487 16.98279-21.228487L699.129958 619.653859 699.129958 619.653859zM329.759399 662.10981l0-42.455951 97.650017 0 0-21.228487 0 0 0 0c0-8.491395-4.245697-16.98279-12.737092-21.228487-12.737092-8.491395-25.474185-12.737092-38.210253-12.737092l0 0 0 0-46.701648 0 0-46.701648 0 0 0 0c21.228487 0 38.211277-8.491395 55.193043-25.474185 12.737092-12.737092 21.228487-33.965579 21.228487-55.193043l0 0 0 0 0 0 0 0c0-21.228487-8.491395-42.455951-21.228487-55.193043-16.98279-12.737092-33.965579-21.228487-55.193043-21.228487l0 0 0 0 0-42.455951 0 0 0 0c29.719882 0 59.438741 12.737092 84.912925 33.965579 21.228487 21.228487 33.965579 50.947346 33.965579 84.912925l0 0 0 0 0 0 0 0c0 33.965579-12.737092 63.684438-33.965579 84.912925-4.245697 4.245697-4.245697 4.245697-8.491395 4.245697 12.737092 4.245697 25.474185 8.491395 33.965579 16.98279 16.98279 12.737092 25.474185 33.965579 29.719882 55.193043l0 0 0 0 0 42.456974 0 21.228487-21.228487 0L329.759399 662.111856zM92.003414 186.598862l237.755985 0 0 50.947346L117.476575 237.546208l0 539.196409 212.281801 0 0 50.947346L92.003414 827.689962c-12.737092 0-25.474185-12.737092-25.474185-25.474185L66.529229 212.072023C66.529229 195.089233 79.266321 186.598862 92.003414 186.598862L92.003414 186.598862zM329.759399 318.213435 329.759399 318.213435 329.759399 318.213435c-33.965579 0-63.684438 12.737092-84.912925 33.965579-25.474185 21.228487-38.210253 50.947346-38.210253 84.912925l0 0 0 0 0 0 0 0c0 33.965579 12.737092 63.684438 38.210253 84.912925 0 0 0 4.245697 4.245697 4.245697-12.737092 4.245697-21.228487 8.491395-33.965579 16.98279l4.245697 0c-21.228487 12.737092-29.719882 33.965579-29.719882 55.193043l0 0 0 0 0 42.456974 0 21.228487 21.228487 0 118.877481 0 0-42.455951L227.863684 619.655905l0-21.228487 0 0 0 0c0-8.491395 8.491395-16.98279 12.737092-21.228487l0 0c12.737092-8.491395 25.474185-12.737092 38.210253-12.737092l0 0 0 0 50.947346 0 0-46.701648 0 0 0 0c-25.474185 0-42.455951-8.491395-55.193043-25.474185-16.98279-12.737092-25.474185-33.965579-25.474185-55.193043l0 0 0 0 0 0 0 0c0-21.228487 8.491395-42.455951 25.474185-55.193043 12.737092-12.737092 29.719882-21.228487 55.193043-21.228487l0 0 0 0L329.758376 318.213435z" p-id="23037"></path></svg>