<?xml version="1.0" standalone="no"?><!DOCTYPE svg PUBLIC "-//W3C//DTD SVG 1.1//EN" "http://www.w3.org/Graphics/SVG/1.1/DTD/svg11.dtd"><svg t="1620627977995" class="icon" viewBox="0 0 1024 1024" version="1.1" xmlns="http://www.w3.org/2000/svg" p-id="12759" xmlns:xlink="http://www.w3.org/1999/xlink" width="200" height="200"><defs><style type="text/css"></style></defs><path d="M213.705143 824.96c128.64 0 221.110857-75.245714 221.110857-177.810286 0-83.236571-59.684571-137.874286-155.538286-144.182857v-1.682286c79.872-13.458286 129.462857-66.834286 129.462857-141.659428 0-90.806857-82.377143-156.379429-196.717714-156.379429-86.582857 0-156.8 37.833143-186.642286 100.461715-7.552 15.542857-11.337143 29.842286-11.337142 46.244571 0 19.748571 13.44 32.786286 32.786285 32.786286 19.328 0 27.739429-7.131429 34.048-26.898286 18.066286-55.076571 64.310857-86.601143 128.621715-86.601143 74.825143 0 123.172571 39.515429 123.172571 100.461714 0 62.646857-51.291429 104.246857-126.957714 104.246858H159.488c-19.748571 0-32.786286 12.196571-32.786286 31.542857 0 18.907429 13.019429 31.524571 32.786286 31.524571h47.067429c93.330286 0 148.809143 39.497143 148.809142 109.714286 0 64.731429-57.6 110.555429-140.8 110.555428-72.740571 0-124.854857-32.365714-143.780571-87.862857-6.308571-18.066286-16.822857-26.057143-34.468571-26.057143C14.464 643.364571 0.164571 656.822857 0.164571 678.674286c0 14.72 3.785143 28.16 11.776 42.88 34.889143 66.413714 108.032 103.405714 201.764572 103.405714z m340.918857-10.514286h172.342857C915.309714 814.445714 1024.164571 702.208 1024.164571 512.64c0-189.586286-108.873143-299.300571-297.197714-299.300571h-172.342857c-23.113143 0-37.833143 15.122286-37.833143 38.656v523.355428c0 23.954286 14.72 39.094857 37.833143 39.094857z m38.253714-68.937143V281.417143h129.042286c144.201143 0 224.475429 84.077714 224.475429 231.625143 0 148.388571-80.274286 232.466286-224.475429 232.466285z" p-id="12760"></path></svg>