<?xml version="1.0" standalone="no"?><!DOCTYPE svg PUBLIC "-//W3C//DTD SVG 1.1//EN" "http://www.w3.org/Graphics/SVG/1.1/DTD/svg11.dtd"><svg t="1620576207262" class="icon" viewBox="0 0 1168 1024" version="1.1" xmlns="http://www.w3.org/2000/svg" p-id="2786" xmlns:xlink="http://www.w3.org/1999/xlink" width="228.125" height="200"><defs><style type="text/css"></style></defs><path d="M1124.957746 1024H43.267606a43.267606 43.267606 0 0 1-43.267606-43.267606V43.267606a43.267606 43.267606 0 0 1 43.267606-43.267606h1081.69014a43.267606 43.267606 0 0 1 43.267606 43.267606v937.464788a43.267606 43.267606 0 0 1-43.267606 43.267606zM86.535211 937.464789h995.15493V86.535211H86.535211z" p-id="2787"></path><path d="M281.239437 212.660282a86.535211 86.535211 0 1 1-86.535212 86.535211 86.535211 86.535211 0 0 1 86.535212-86.535211zM413.277746 804.272676l-61.151549-61.151549 428.277183-428.349296 234.582535 234.582535-61.151549 61.151549-173.430986-173.358873-367.125634 367.125634zM214.390986 687.017465l-61.151549-61.223662 183.598873-183.526761L464.261408 569.690141l-61.151549 61.223662-66.271549-66.271549-122.447324 122.375211z" p-id="2788"></path></svg>