<?xml version="1.0" standalone="no"?><!DOCTYPE svg PUBLIC "-//W3C//DTD SVG 1.1//EN" "http://www.w3.org/Graphics/SVG/1.1/DTD/svg11.dtd"><svg t="1620601684767" class="icon" viewBox="0 0 1024 1024" version="1.1" xmlns="http://www.w3.org/2000/svg" p-id="11144" xmlns:xlink="http://www.w3.org/1999/xlink" width="200" height="200"><defs><style type="text/css"></style></defs><path d="M616 848h-224l-32 168h288z" fill="#BDBDBD" p-id="11145"></path><path d="M623.856 846.496a8 8 0 0 0-7.856-6.496h-224a8 8 0 0 0-7.856 6.496l-32 168A8.032 8.032 0 0 0 360 1024h288a7.984 7.984 0 0 0 7.856-9.504l-32-168zM369.664 1008l28.96-152h210.752l28.96 152H369.664z" fill="#37474F" p-id="11146"></path><path d="M680 976h-352a16 16 0 0 0-16 16v8a16 16 0 0 0 16 16h352a16 16 0 0 0 16-16V992a16 16 0 0 0-16-16z" fill="#BDBDBD" p-id="11147"></path><path d="M680 968h-352c-13.232 0-24 10.768-24 24v8c0 13.232 10.768 24 24 24h352c13.232 0 24-10.768 24-24V992c0-13.232-10.768-24-24-24z m8 32a8 8 0 0 1-8 8h-352a8 8 0 0 1-8-8V992a8 8 0 0 1 8-8h352a8 8 0 0 1 8 8v8z" fill="#37474F" p-id="11148"></path><path d="M928 160H48a40 40 0 0 0-40 40v608A40 40 0 0 0 48 848h880a40 40 0 0 0 40-40v-608A40 40 0 0 0 928 160z" fill="#BDBDBD" p-id="11149"></path><path d="M928 152H48c-26.464 0-48 21.536-48 48v608c0 26.464 21.536 48 48 48h880c26.464 0 48-21.536 48-48v-608c0-26.464-21.536-48-48-48z m32 656c0 17.648-14.352 32-32 32H48c-17.648 0-32-14.352-32-32v-608c0-17.648 14.352-32 32-32h880c17.648 0 32 14.352 32 32v608z" fill="#37474F" p-id="11150"></path><path d="M976 160H96a40 40 0 0 0-40 40v608A40 40 0 0 0 96 848h880a40 40 0 0 0 40-40v-608A40 40 0 0 0 976 160z" fill="#EEEEEE" p-id="11151"></path><path d="M976 152H96c-26.464 0-48 21.536-48 48v608c0 26.464 21.536 48 48 48h880c26.464 0 48-21.536 48-48v-608c0-26.464-21.536-48-48-48z m32 656c0 17.648-14.352 32-32 32H96c-17.648 0-32-14.352-32-32v-608c0-17.648 14.352-32 32-32h880c17.648 0 32 14.352 32 32v608z" fill="#37474F" p-id="11152"></path><path d="M664 848h-224l-32 168h288z" fill="#EEEEEE" p-id="11153"></path><path d="M671.856 846.496a8 8 0 0 0-7.856-6.496h-224a8 8 0 0 0-7.856 6.496l-32 168A8.032 8.032 0 0 0 408 1024h288a7.984 7.984 0 0 0 7.856-9.504l-32-168zM417.664 1008l28.96-152h210.752l28.96 152H417.664z" fill="#37474F" p-id="11154"></path><path d="M728 976h-352a16 16 0 0 0-16 16v8a16 16 0 0 0 16 16h352a16 16 0 0 0 16-16V992a16 16 0 0 0-16-16z" fill="#EEEEEE" p-id="11155"></path><path d="M728 968h-352c-13.232 0-24 10.768-24 24v8c0 13.232 10.768 24 24 24h352c13.232 0 24-10.768 24-24V992c0-13.232-10.768-24-24-24z m8 32a8 8 0 0 1-8 8h-352a8 8 0 0 1-8-8V992a8 8 0 0 1 8-8h352a8 8 0 0 1 8 8v8z" fill="#37474F" p-id="11156"></path><path d="M56 232h960v544h-960z" fill="#26C6DA" p-id="11157"></path><path d="M1016 224h-960a8 8 0 0 0-8 8v544a8 8 0 0 0 8 8h960a8 8 0 0 0 8-8v-544a8 8 0 0 0-8-8zM1008 768H64V240h944v528z" fill="#37474F" p-id="11158"></path><path d="M984 256a8 8 0 0 0-8 8v480a8 8 0 0 0 16 0v-480a8 8 0 0 0-8-8z" fill="#0097A7" p-id="11159"></path><path d="M88 256a8 8 0 0 0-8 8v480a8 8 0 0 0 16 0v-480a8 8 0 0 0-8-8z" fill="#80DEEA" p-id="11160"></path><path d="M152 104V624a40 40 0 0 0 40 40h688a40 40 0 0 0 40-40V104h-768z" fill="#EEEEEE" p-id="11161"></path><path d="M920 96h-768a8 8 0 0 0-8 8V624c0 26.464 21.536 48 48 48h688c26.464 0 48-21.536 48-48V104a8 8 0 0 0-8-8zM912 624c0 17.648-14.352 32-32 32H192c-17.648 0-32-14.352-32-32V112h752v512z" fill="#37474F" p-id="11162"></path><path d="M290.656 305.056v153.968l133.344-76.976v-153.968z" fill="#FFCA28" p-id="11163"></path><path d="M428 221.152a8.032 8.032 0 0 0-8 0l-133.328 76.992a7.984 7.984 0 0 0-4 6.928v153.968a7.984 7.984 0 0 0 12 6.928l133.328-76.992a7.984 7.984 0 0 0 4-6.928v-153.968a8 8 0 0 0-4-6.928zM416 377.424l-117.328 67.744v-135.488L416 241.936v135.488z" fill="#37474F" p-id="11164"></path><path d="M424 228.08v153.968l133.328 76.976v-153.968z" fill="#FFCA28" p-id="11165"></path><path d="M561.328 298.128l-133.328-76.992a8.032 8.032 0 0 0-12 6.944v153.968c0 2.864 1.52 5.504 4 6.928l133.328 76.992a8.096 8.096 0 0 0 8 0 8 8 0 0 0 4-6.928v-153.968a8.048 8.048 0 0 0-4-6.944z m-12 147.04L432 377.424v-135.488l117.328 67.744v135.488z" fill="#37474F" p-id="11166"></path><path d="M424 382.048l-133.344 76.976L424 536l133.328-76.976z" fill="#FFCA28" p-id="11167"></path><path d="M561.328 452.096l-133.328-76.992a8.032 8.032 0 0 0-8 0l-133.328 76.992a7.984 7.984 0 0 0 0 13.856l133.328 76.976a7.888 7.888 0 0 0 8 0l133.328-76.976a8 8 0 0 0 0-13.856zM424 526.768l-117.328-67.744 117.328-67.744 117.328 67.744-117.328 67.744z" fill="#37474F" p-id="11168"></path><path d="M588 467.488l-160-92.368a8 8 0 1 0-8 13.856l160 92.368a8 8 0 0 0 8-13.856z" fill="#37474F" p-id="11169"></path><path d="M430.928 378.032a8 8 0 0 0-10.928-2.928l-160 92.368a8 8 0 1 0 8.016 13.856l160-92.368a8 8 0 0 0 2.912-10.928z" fill="#37474F" p-id="11170"></path><path d="M424 189.296a8 8 0 0 0-8 8v184.752a8 8 0 0 0 16 0V197.296a8 8 0 0 0-8-8z" fill="#37474F" p-id="11171"></path><path d="M880 8H192A40 40 0 0 0 152 48v56h768V48A40 40 0 0 0 880 8z" fill="#FF7043" p-id="11172"></path><path d="M880 0H192c-26.464 0-48 21.536-48 48v56a8 8 0 0 0 8 8h768a8 8 0 0 0 8-8V48c0-26.464-21.536-48-48-48z m32 96H160V48c0-17.648 14.352-32 32-32h688c17.648 0 32 14.352 32 32v48z" fill="#37474F" p-id="11173"></path><path d="M696 104v560H880a40 40 0 0 0 40-40V104h-224z" fill="#78909C" p-id="11174"></path><path d="M920 96h-224a8 8 0 0 0-8 8v560a8 8 0 0 0 8 8H880c26.464 0 48-21.536 48-48V104a8 8 0 0 0-8-8zM912 624c0 17.648-14.352 32-32 32H704V112h208v512z" fill="#37474F" p-id="11175"></path><path d="M920 336h-224a8 8 0 0 0 0 16h224a8 8 0 0 0 0-16zM920 416h-224a8 8 0 0 0 0 16h224a8 8 0 0 0 0-16zM920 496h-224a8 8 0 0 0 0 16h224a8 8 0 0 0 0-16zM920 576h-224a8 8 0 0 0 0 16h224a8 8 0 0 0 0-16z" fill="#37474F" p-id="11176"></path><path d="M808 224m-48 0a48 48 0 1 0 96 0 48 48 0 1 0-96 0Z" fill="#EEEEEE" p-id="11177"></path><path d="M808 168c-30.88 0-56 25.12-56 56s25.12 56 56 56S864 254.88 864 224s-25.12-56-56-56z m0 96c-22.064 0-40-17.952-40-40s17.936-40 40-40S848 201.952 848 224s-17.936 40-40 40z" fill="#37474F" p-id="11178"></path><path d="M192 96a8 8 0 0 0-8 8V624a8 8 0 0 0 16 0V104A8 8 0 0 0 192 96z" fill="#FAFAFA" p-id="11179"></path><path d="M192 40a8 8 0 0 0-8 8v56a8 8 0 0 0 16 0V48a8 8 0 0 0-8-8z" fill="#FFAB91" p-id="11180"></path><path d="M880 0H192c-26.464 0-48 21.536-48 48v56a8 8 0 0 0 8 8h768a8 8 0 0 0 8-8V48c0-26.464-21.536-48-48-48z m32 96H160V48c0-17.648 14.352-32 32-32h688c17.648 0 32 14.352 32 32v48z" fill="#37474F" p-id="11181"></path></svg>