<?xml version="1.0" standalone="no"?><!DOCTYPE svg PUBLIC "-//W3C//DTD SVG 1.1//EN" "http://www.w3.org/Graphics/SVG/1.1/DTD/svg11.dtd"><svg t="1620576274003" class="icon" viewBox="0 0 1024 1024" version="1.1" xmlns="http://www.w3.org/2000/svg" p-id="3728" xmlns:xlink="http://www.w3.org/1999/xlink" width="200" height="200"><defs><style type="text/css"></style></defs><path d="M661.3 250.7H138.7c-41.2 0-74.7 33.4-74.7 74.7v560c0 41.2 33.4 74.7 74.7 74.7h522.7c41.2 0 74.7-33.4 74.7-74.7v-560c-0.1-41.3-33.5-74.7-74.8-74.7z m18.7 616c0 20.6-16.7 37.3-37.3 37.3H157.3c-20.6 0-37.3-16.7-37.3-37.3V344c0-20.6 16.7-37.3 37.3-37.3h485.3c20.6 0 37.3 16.7 37.3 37.3v522.7z" fill="#2c2c2c" p-id="3729"></path><path d="M596 624h-37.3c-15.4 0-28 12.6-28 28s12.6 28 28 28H596c15.4 0 28-12.6 28-28s-12.6-28-28-28zM596 530.7h-93.3c-15.4 0-28 12.6-28 28s12.6 28 28 28H596c15.4 0 28-12.6 28-28s-12.6-28-28-28zM596 437.3H465.3c-15.4 0-28 12.6-28 28s12.6 28 28 28H596c15.4 0 28-12.6 28-28s-12.6-28-28-28zM299 437.3l-123 336h77.7l24.7-77h122.1l25.2 77h78.1l-120.6-336H299zM294 641l44.3-145.8h2L383.6 641H294z" fill="#2c2c2c" p-id="3730"></path><path d="M885.3 64H418.7c-41.1 0-74.7 33.6-74.7 74.7v46.7c0 15.5 12.5 28 28 28s28-12.5 28-28v-28c0-20.5 16.8-37.3 37.3-37.3h429.3c20.5 0 37.3 16.8 37.3 37.3V680c0 20.5-16.8 37.3-37.3 37.3h-65.3c-15.5 0-28 12.5-28 28s12.5 28 28 28h84c41.1 0 74.7-33.6 74.7-74.7v-560c0-41-33.6-74.6-74.7-74.6z" fill="#2c2c2c" p-id="3731"></path></svg>