<?xml version="1.0" standalone="no"?><!DOCTYPE svg PUBLIC "-//W3C//DTD SVG 1.1//EN" "http://www.w3.org/Graphics/SVG/1.1/DTD/svg11.dtd"><svg t="1620578157297" class="icon" viewBox="0 0 1024 1024" version="1.1" xmlns="http://www.w3.org/2000/svg" p-id="24754" xmlns:xlink="http://www.w3.org/1999/xlink" width="200" height="200"><defs><style type="text/css"></style></defs><path d="M848.8 419c-14-27.6-31.1-54-51.1-78.8-23.4-29-50.8-55.9-81.3-79.9-52.1-41-95.4-59.4-97.2-60.1l-0.3-0.1c-103.1-41-193.4-39.1-268.4 5.7-37.8 22.6-71.5 56.1-100.3 99.7-22.7 34.4-42.4 75-58.6 120.9-27.4 77.7-35.1 142.8-35.4 145.6-0.2 1.5-0.1 3 0.1 4.4-41.8 4.2-74.6 39.5-74.6 82.4V728c0 45.7 37.2 82.8 82.8 82.8h492.2c45.7 0 82.8-37.2 82.8-82.8v-69.2c0-45.7-37.2-82.8-82.8-82.8h-10.3c-0.9-10.8-1.9-27.2-1.8-45.3 0.1-39.2 5.3-68.8 14.5-83.5 4.7-7.5 2.4-17.4-5-22.1-7.5-4.7-17.4-2.4-22.1 5-12.7 20.2-19.2 54-19.4 100.4-0.1 17.8 0.8 34 1.7 45.4H187.9v-0.3c0.1-0.6 7.8-64.9 34.1-139.3 15.3-43.3 33.8-81.5 55.1-113.6 26.1-39.4 56.3-69.5 89.9-89.5 30.9-18.4 65.3-28.6 102.2-30.3 41.9-1.9 88.2 7.1 137.7 26.8 2.5 1.1 42.9 18.9 90.5 56.4 28.5 22.5 54 47.6 75.8 74.7 15.6 19.4 29.3 39.8 40.9 61-13.7 3.4-26.3 9.5-37.3 17.6-40.7-38.6-83.7-58.7-128.3-59.9-77.2-1.9-129.5 54.2-131.6 56.6-6 6.5-5.5 16.6 1 22.6s16.6 5.5 22.6-1c0.4-0.5 44.4-47.8 107.2-46.2 36.2 0.9 71.9 17.9 106.5 50.5-13.1 17.7-20.9 39.7-20.9 63.4 0 58.8 47.9 106.7 106.7 106.7s106.7-47.9 106.7-106.7c0-55.9-43.2-101.9-97.9-106.4z m-192 188.8c28 0 50.8 22.8 50.8 50.8v69.2c0 28-22.8 50.8-50.8 50.8H164.6c-28 0-50.8-22.8-50.8-50.8v-69.2c0-28 22.8-50.8 50.8-50.8h492.2z m183.1-7.7c-41.2 0-74.7-33.5-74.7-74.7 0-14.6 4.2-28.2 11.5-39.7 5.8-9.2 13.5-17 22.5-22.9 8.8-5.7 18.8-9.7 29.6-11.3 3.6-0.5 7.3-0.8 11.1-0.8 8.8 0 17.2 1.5 25.1 4.3 28.9 10.3 49.6 38 49.6 70.4 0.1 41.1-33.5 74.7-74.7 74.7z" fill="#2c2c2c" p-id="24755"></path></svg>